<svg width="300" height="300" viewBox="0 0 300 300" fill="none" xmlns="http://www.w3.org/2000/svg">
    <path d="M23.8095 0.263396C16.8864 1.28889 10.9524 4.62174 6.15385 10.2253C3.99267 12.7524 1.50183 17.8066 0.659341 21.3592C0.03663 24.1061 0 29.3434 0 150.022C0 270.7 0.03663 275.938 0.659341 278.684C1.50183 282.274 3.99267 287.291 6.26374 289.928C10.1832 294.58 15.7143 298.022 21.3187 299.341C24.0659 299.963 29.304 300 150 300C270.696 300 275.934 299.963 278.681 299.341C284.286 298.022 289.817 294.58 293.736 289.928C296.007 287.291 298.498 282.274 299.341 278.684C299.963 275.938 300 270.7 300 150.022C300 29.3434 299.963 24.1061 299.341 21.3592C297.033 11.6171 289.341 3.66949 279.414 0.849391L276.557 0.0436474L151.282 0.00702266C81.3919 -0.0296021 25.0549 0.0802721 23.8095 0.263396ZM92.381 77.2119C96.1905 81.0941 104.469 89.5911 110.769 96.037L122.234 107.83L124.249 108.05C126.777 108.343 128.645 109.295 130.293 111.126C131.905 112.921 132.564 114.789 132.527 117.426C132.454 122.517 128.645 126.216 123.443 126.216C118.681 126.216 115.421 123.432 114.322 118.525C114.139 117.682 108.901 112.189 89.1209 91.9717L85.1648 87.9429L77.3993 95.7074L69.5971 103.508L89.7436 123.652L109.89 143.796H116.374C119.963 143.796 122.894 143.905 122.894 144.089C122.894 144.235 110.952 156.065 96.337 170.349C81.7216 184.669 69.7802 196.425 69.7802 196.535C69.7802 196.645 73.2967 200.234 77.5824 204.519L85.4212 212.32L110.842 186.537L136.264 160.716L150.403 160.68L164.506 160.643L168.901 165.148C174.249 170.642 177.729 174.231 198.169 195.546L214.249 212.32L222.051 204.519C226.337 200.234 229.817 196.608 229.744 196.425C229.707 196.279 224.286 190.492 217.692 183.57C206.557 171.887 205.568 170.971 203.956 170.495C201.685 169.872 198.718 166.979 198.059 164.818C196.337 158.922 199.927 153.318 205.824 152.695C211.136 152.146 215.348 155.772 215.897 161.339L216.117 163.829L231.319 180.054C239.67 188.954 246.557 196.462 246.63 196.682C246.667 196.901 239.414 204.483 230.476 213.529L214.286 229.974L189.194 203.824C175.421 189.43 162.821 176.318 161.209 174.634L158.278 171.63H150.733H143.187L133.333 181.592C127.912 187.086 114.908 200.198 104.432 210.746L85.3846 229.9L68.6813 213.199L52.0147 196.535L75.2747 173.279L98.5348 150.022L75.2747 126.765L52.0147 103.508L68.6813 86.8442C77.8388 77.688 85.348 70.18 85.3846 70.18C85.4212 70.18 88.5348 73.3663 92.381 77.2119ZM231.355 86.5512C240.403 95.5243 247.802 103.032 247.802 103.215C247.802 103.435 242.381 109.039 235.788 115.704C209.121 142.697 191.209 161.009 191.209 161.375C191.209 161.559 196.374 167.382 202.674 174.304L214.139 186.903L216.154 187.342C220.366 188.295 223.26 191.957 223.26 196.352C223.26 201.553 219.341 205.435 214.103 205.398C209.414 205.398 205.751 202.102 205.018 197.304C204.762 195.473 204.652 195.363 188.205 178.443C179.084 169.067 171.612 161.229 171.612 161.046C171.612 160.863 172.711 159.691 174.103 158.409C177.802 154.93 229.67 104.168 229.78 103.875C229.927 103.508 214.506 88.0528 214.139 88.1993C213.846 88.3092 194.029 107.684 169.78 131.563L161.172 140.06L136.813 139.877L112.454 139.694L99.0843 126.399C86.4103 113.8 85.641 113.104 84.1392 112.884C81.0256 112.408 78.0586 110.138 76.8865 107.317C76.1538 105.559 76.2637 101.787 77.0696 100.029C77.9487 98.1246 80.696 95.5975 82.4542 95.1214C87.9487 93.5831 93.2234 96.623 94.359 101.934L94.7985 104.058L107.106 116.217L119.414 128.377H137.912L156.41 128.413L185.531 99.2966C201.538 83.2916 214.689 70.18 214.762 70.18C214.835 70.18 222.271 77.5415 231.355 86.5512ZM216.813 95.4876C218.718 96.0004 221.978 99.26 222.491 101.164C224.103 106.915 220.733 112.481 215.128 113.251C213.626 113.47 212.344 114.642 191.392 135.042L169.231 156.578L151.832 156.614H134.432L114.615 176.465C96.63 194.484 94.7253 196.499 94.5055 197.817C93.2967 204.812 85.2747 207.742 79.4506 203.311C75.3846 200.198 75.4212 192.69 79.5238 189.284C80.9158 188.112 83.7729 187.013 85.3846 187.013C85.9341 187.013 92.3443 180.86 107.802 165.404L129.414 143.796H146.923H164.469L184.432 124.311C204.249 104.937 204.396 104.79 204.652 103.032C205.568 97.209 210.952 93.8761 216.813 95.4876Z" fill="#0184B5"/>
</svg>
